<svg xmlns="http://www.w3.org/2000/svg" xmlns:xlink="http://www.w3.org/1999/xlink" width="150px" height="80px" id="Layer_1" x="0px" y="0px" viewBox="0 0 200 68" style="enable-background:new 0 0 200 68;" xml:space="preserve"><style type="text/css">	.st0{fill-rule:evenodd;clip-rule:evenodd;fill:#595A5A;}	.st1{fill:#595A5A;}	.st2{font-family:'Avenir-Medium';}	.st3{font-size:14.6189px;}</style><g>	<g>		<g>			<path class="st0" d="M37.4,43V28.4c0-2.5-0.5-4.4-1.5-5.6c-1-1.2-2.6-1.8-4.7-1.8c-1.1,0-2.2,0.2-3.2,0.7c-1,0.5-1.8,1.1-2.5,2    c-0.5,0.7-0.8,1.4-1.1,2.3c-0.2,0.9-0.3,2.3-0.3,4.3V43h-4.1V28.4c0-2.5-0.5-4.4-1.5-5.6c-1-1.2-2.6-1.8-4.7-1.8    c-1.1,0-2.2,0.2-3.2,0.7c-1,0.5-1.8,1.1-2.5,2c-0.5,0.6-0.8,1.4-1,2.2c-0.2,0.8-0.3,2.3-0.3,4.4V43H2.8V18.1h4.2V22    c1-1.6,2.3-2.8,3.7-3.6s3.1-1.2,5-1.2c2,0,3.7,0.4,5.1,1.3c1.4,0.9,2.5,2.1,3.2,3.8c1.1-1.7,2.3-3,3.8-3.8    c1.5-0.8,3.2-1.3,5.1-1.3c2.8,0,4.9,0.8,6.5,2.3c1.6,1.6,2.3,3.7,2.3,6.5v17H37.4z"></path>			<path class="st0" d="M65,30.8c0-2.8-0.8-5.1-2.3-6.8c-1.5-1.7-3.5-2.6-6-2.6c-2.6,0-4.6,0.8-6,2.4c-1.4,1.6-2.2,3.8-2.2,6.6    c0,3,0.7,5.3,2.2,7c1.4,1.6,3.5,2.5,6.1,2.5c2.5,0,4.5-0.8,6-2.4C64.3,35.9,65,33.7,65,30.8L65,30.8z M69.1,18.1V43H65v-4.5    c-1,1.8-2.3,3.2-3.8,4.1c-1.6,1-3.3,1.4-5.2,1.4c-3.6,0-6.5-1.2-8.6-3.7c-2.2-2.5-3.3-5.7-3.3-9.8c0-4.1,1.1-7.4,3.2-9.8    c2.1-2.4,5-3.6,8.5-3.6c2.1,0,3.9,0.5,5.4,1.4c1.5,0.9,2.8,2.3,3.7,4.2v-4.7H69.1z"></path>			<path class="st0" d="M71.9,43V18.1h3.8v5.2c1.1-2.2,2.4-3.7,3.7-4.6c1.3-0.9,2.9-1.4,4.7-1.4c0.5,0,1,0,1.5,0.1    c0.5,0.1,0.9,0.2,1.4,0.4l-1.4,3.9c-0.5-0.2-1-0.3-1.4-0.4c-0.4-0.1-0.9-0.1-1.3-0.1c-2.2,0-3.9,0.8-5.1,2.4    c-1.1,1.6-1.7,4.1-1.7,7.3V43H71.9z"></path>			<path class="st0" d="M85.5,38.8l3.7-2.4c0.7,1.3,1.6,2.3,2.6,3c1,0.7,2.3,1,3.7,1c1.4,0,2.5-0.3,3.4-1c0.9-0.7,1.3-1.6,1.3-2.7    c0-0.9-0.3-1.6-0.9-2.2c-0.6-0.6-1.6-1.1-3-1.6l-0.7-0.3c-6.1-2.1-9.1-4.7-9.1-7.8c0-2.2,0.8-4,2.4-5.4c1.6-1.4,3.8-2.1,6.4-2.1    c2.2,0,4,0.4,5.6,1.3c1.5,0.9,2.6,2.1,3.3,3.7l-3.4,2.1c-0.5-1.1-1.3-2-2.2-2.6c-1-0.6-2.1-0.9-3.4-0.9c-1.3,0-2.3,0.4-3.1,1    c-0.8,0.7-1.2,1.6-1.2,2.7c0,1.5,1.7,2.8,5,3.8c0.6,0.2,1.1,0.4,1.5,0.5c2.7,0.9,4.6,1.9,5.6,3c1.1,1.1,1.6,2.6,1.6,4.4    c0,2.4-0.8,4.3-2.5,5.7c-1.7,1.5-3.9,2.2-6.6,2.2c-2.3,0-4.3-0.4-5.9-1.3C87.8,41.9,86.5,40.6,85.5,38.8z"></path>			<path class="st0" d="M105.1,6.1c0-0.8,0.3-1.6,0.9-2.2c0.6-0.6,1.4-0.9,2.2-0.9c0.8,0,1.6,0.3,2.2,0.9c0.6,0.6,0.9,1.4,0.9,2.2    c0,0.9-0.3,1.6-0.9,2.2c-0.6,0.6-1.3,0.9-2.2,0.9c-0.9,0-1.6-0.3-2.2-0.9C105.4,7.7,105.1,7,105.1,6.1L105.1,6.1z M106.1,43V18.1    h4.3V43H106.1z"></path>			<path class="st0" d="M133.8,27.8c-0.1-2.2-0.9-3.9-2.2-5.1c-1.3-1.2-3.1-1.8-5.4-1.8c-2.1,0-3.8,0.6-5.2,1.9    c-1.4,1.2-2.2,2.9-2.4,5H133.8L133.8,27.8z M138.4,31.2h-19.7v0.4c0,2.7,0.8,4.8,2.3,6.5c1.5,1.6,3.5,2.5,6,2.5    c1.7,0,3.2-0.4,4.5-1.3c1.3-0.9,2.5-2.2,3.6-4.1l3.2,2.2c-1.2,2.2-2.8,3.9-4.8,5.1c-1.9,1.1-4.2,1.7-6.8,1.7    c-3.8,0-6.9-1.3-9.2-3.8c-2.3-2.5-3.5-5.8-3.5-9.9c0-3.9,1.2-7.1,3.5-9.6c2.3-2.5,5.3-3.7,9-3.7c3.7,0,6.6,1.2,8.8,3.5    c2.1,2.4,3.2,5.6,3.2,9.7V31.2z"></path>			<path class="st0" d="M141.6,43V18.1h3.8v5.2c1.1-2.2,2.4-3.7,3.7-4.6c1.3-0.9,2.9-1.4,4.7-1.4c0.5,0,1,0,1.5,0.1    c0.5,0.1,0.9,0.2,1.4,0.4l-1.4,3.9c-0.5-0.2-1-0.3-1.4-0.4c-0.4-0.1-0.9-0.1-1.3-0.1c-2.2,0-3.9,0.8-5.1,2.4    c-1.1,1.6-1.7,4.1-1.7,7.3V43H141.6z"></path>			<path class="st0" d="M157.8,43V18.1h3.8v5.2c1.1-2.2,2.4-3.7,3.7-4.6c1.3-0.9,2.9-1.4,4.7-1.4c0.5,0,1,0,1.5,0.1    c0.5,0.1,0.9,0.2,1.4,0.4l-1.4,3.9c-0.5-0.2-1-0.3-1.4-0.4c-0.4-0.1-0.9-0.1-1.3-0.1c-2.2,0-3.9,0.8-5.1,2.4    c-1.1,1.6-1.7,4.1-1.7,7.3V43H157.8z"></path>			<path class="st0" d="M193.1,30.8c0-2.8-0.8-5.1-2.3-6.8c-1.5-1.7-3.5-2.6-6-2.6c-2.6,0-4.6,0.8-6,2.4c-1.4,1.6-2.2,3.8-2.2,6.6    c0,3,0.7,5.3,2.2,7c1.4,1.6,3.5,2.5,6.1,2.5c2.5,0,4.5-0.8,6-2.4C192.4,35.9,193.1,33.7,193.1,30.8L193.1,30.8z M197.2,18.1V43    h-4.1v-4.5c-1,1.8-2.3,3.2-3.8,4.1c-1.6,1-3.3,1.4-5.2,1.4c-3.6,0-6.5-1.2-8.6-3.7c-2.2-2.5-3.3-5.7-3.3-9.8    c0-4.1,1.1-7.4,3.2-9.8c2.1-2.4,5-3.6,8.5-3.6c2.1,0,3.9,0.5,5.4,1.4c1.5,0.9,2.8,2.3,3.7,4.2v-4.7H197.2z"></path>		</g>	</g>	<text transform="matrix(1 0 0 1 40.5879 60.8773)" class="st1 st2 st3">Siolim, North Goa</text></g></svg>