<svg xmlns="http://www.w3.org/2000/svg" xmlns:xlink="http://www.w3.org/1999/xlink" width="150px" height="80px" viewBox="0 0 372 158"><title>Group 2</title><g id="Brochure" stroke="none" stroke-width="1" fill="none" fill-rule="evenodd"><g id="5-copy-6" transform="translate(-534.000000, -433.000000)" fill="#FFE9D6"><g id="Group-2" transform="translate(534.000000, 433.000000)"><g id="Group"><path d="M25.5080378,16.1456706 C26.7586408,7.24713591 36.8451647,1.28375158 47.9850747,2.84775878 C58.694054,4.35317012 66.540207,12.2753303 66.0248982,20.7888065 L66.0248982,20.7888065 L71.7287866,20.7888065 C73.4853231,20.7888065 74.9097047,22.2131881 74.9097047,23.9697246 C74.9097047,25.726261 73.4853231,27.1506427 71.7287866,27.1506427 L71.7287866,27.1506427 L60.0096147,27.1506427 C58.2530783,27.1506427 56.8286966,25.726261 56.8286966,23.9697246 C56.8286966,22.2131881 58.2530783,20.7888065 60.0096147,20.7888065 L60.0096147,20.7888065 C60.62236,15.3236544 54.7952529,9.85414941 47.1513393,8.7800036 C39.4106588,7.69279928 32.2174311,11.447622 31.4402826,16.9794059 C30.6627992,22.5111899 36.5438145,28.1035788 44.282486,29.1911179 C54.1409883,30.5769937 63.0251251,34.8404284 69.2978955,41.1962376 C75.7708964,47.7546211 78.7254671,55.751784 77.6215211,63.7191467 C77.6175031,63.7512907 77.6128154,63.7834347 77.6077929,63.8155788 C76.4713681,71.7762448 71.4274365,78.6466931 63.3998037,83.1656058 C57.4149901,86.5343654 50.2860504,88.2885581 42.828639,88.2885581 C40.5892727,88.2885581 38.3211107,88.1301818 36.044243,87.8104158 C26.3950117,86.4540054 16.7950009,81.2640864 9.70456701,73.5706175 C2.55520247,65.813865 -0.907645412,56.8282736 0.204336586,48.9171629 C0.367065659,47.7596436 1.18807736,46.8023546 2.30776053,46.4655122 C3.42576953,46.1286697 4.63987574,46.4742178 5.41434559,47.3501422 C12.5871485,55.464162 28.0678397,60.8723924 37.2770999,55.6807993 C47.2708748,50.0478956 61.8458415,52.0950675 71.6249883,57.6027435 C69.8811755,46.7645185 58.4121242,37.2264518 43.4487506,35.1233627 C32.3058271,33.5573465 24.2577695,25.0438704 25.5080378,16.1456706 Z M115.150194,34.3918855 C131.341402,34.3918855 142.096588,45.0285408 142.096588,60.2745138 C142.096588,75.5201519 131.341402,86.2750034 115.150194,86.2750034 C98.9589857,86.2750034 88.3223305,75.5201519 88.3223305,60.2745138 C88.3223305,45.0285408 98.9589857,34.3918855 115.150194,34.3918855 Z M241.72599,34.3920194 C252.008056,34.3920194 259.454083,39.1191986 263.590281,46.0921059 L263.590281,46.0921059 L263.590281,38.6467485 C263.590281,36.5192166 265.126832,35.4557854 266.781244,35.4557854 C268.435991,35.4557854 270.090404,36.5192166 270.090404,38.6467485 L270.090404,38.6467485 L270.090404,78.9476414 L276.118076,78.9476414 C278.245273,78.9476414 279.190843,80.365996 279.190843,81.9022121 C279.190843,83.4384281 278.245273,84.9749789 276.118076,84.9749789 L276.118076,84.9749789 L266.663383,84.9749789 C265.126832,84.9749789 263.590281,83.911213 263.590281,81.7840158 L263.590281,81.7840158 L263.590281,74.5747161 C259.454083,81.5476234 252.008056,86.1566063 241.72599,86.1566063 C226.480351,86.1566063 216.434677,76.111267 216.434677,60.2746477 C216.434677,44.4376936 226.480351,34.3920194 241.72599,34.3920194 Z M159.350557,5.89750471e-13 C161.00497,5.89750471e-13 162.54152,1.06376598 162.54152,3.1909631 L162.54152,3.1909631 L162.54152,46.6831539 C163.486755,40.1830315 170.223605,34.3920864 180.151083,34.3920864 C195.633448,34.3920864 203.433394,42.5466211 203.433394,59.4470063 L203.433394,59.4470063 L203.433394,78.9477084 L209.224674,78.9477084 C211.352206,78.9477084 212.415637,80.4839244 212.415637,82.0204752 C212.415637,83.438495 211.352206,84.9750459 209.224674,84.9750459 L209.224674,84.9750459 L200.124235,84.9750459 C198.469823,84.9750459 196.815076,83.9112799 196.815076,81.7840828 L196.815076,81.7840828 L196.815076,59.6833987 C196.815076,46.5649577 190.43315,40.7736778 178.969456,40.7736778 C169.041643,40.7736778 163.368894,47.3923312 162.54152,57.5562016 L162.54152,57.5562016 L162.54152,78.9477084 L168.568858,78.9477084 C170.578194,78.9477084 171.64196,80.4839244 171.64196,82.0204752 C171.64196,83.438495 170.578194,84.9750459 168.568858,84.9750459 L168.568858,84.9750459 L150.01406,84.9750459 C148.004725,84.9750459 146.940959,83.438495 146.940959,82.0204752 C146.940959,80.4839244 148.004725,78.9477084 150.01406,78.9477084 L150.01406,78.9477084 L156.041398,78.9477084 L156.041398,6.02767237 L149.895864,6.02767237 C147.886863,6.02767237 146.823097,4.49112151 146.823097,2.95457066 C146.823097,1.53655086 147.886863,5.89750471e-13 149.895864,5.89750471e-13 L149.895864,5.89750471e-13 Z M344.547091,34.3920864 C353.056549,34.3920864 362.629438,38.5282844 362.629438,56.2560432 L362.629438,56.2560432 L362.629438,78.9477084 L368.657111,78.9477084 C370.784308,78.9477084 371.729878,80.3657282 371.729878,81.902279 C371.729878,83.438495 370.784308,84.9750459 368.657111,84.9750459 L368.657111,84.9750459 L359.320279,84.9750459 C357.783728,84.9750459 356.129316,83.9112799 356.129316,81.7840828 L356.129316,81.7840828 L356.129316,56.4927705 C356.129316,43.9646409 349.156409,40.5372853 342.892679,40.5372853 C336.74681,40.5372853 329.655707,43.9646409 329.655707,56.4927705 L329.655707,56.4927705 L329.655707,78.9477084 L335.683379,78.9477084 C337.810576,78.9477084 338.874342,80.3657282 338.874342,81.902279 C338.874342,83.438495 337.810576,84.9750459 335.683379,84.9750459 L335.683379,84.9750459 L326.346882,84.9750459 C324.692135,84.9750459 323.155584,83.9112799 323.155584,81.7840828 L323.155584,81.7840828 L323.155584,56.4927705 C323.155584,43.9646409 316.182677,40.5372853 310.037478,40.5372853 C303.773413,40.5372853 296.800506,43.9646409 296.800506,56.4927705 L296.800506,56.4927705 L296.800506,78.9477084 L302.94604,78.9477084 C304.955375,78.9477084 306.019141,80.3657282 306.019141,81.902279 C306.019141,83.438495 304.955375,84.9750459 302.94604,84.9750459 L302.94604,84.9750459 L284.272711,84.9750459 C282.145514,84.9750459 281.081748,83.438495 281.081748,82.0204752 C281.081748,80.4839244 282.145514,78.9477084 284.272711,78.9477084 L284.272711,78.9477084 L290.300383,78.9477084 L290.300383,41.4828551 L284.272711,41.4828551 C282.145514,41.4828551 281.200279,40.0648353 281.200279,38.5282844 C281.200279,36.9917336 282.145514,35.4555176 284.272711,35.4555176 L284.272711,35.4555176 L293.727739,35.4555176 C295.26429,35.4555176 296.800506,36.5192835 296.800506,38.6468155 L296.800506,38.6468155 L296.800506,44.0831719 C299.755076,37.3466571 305.42816,34.3920864 311.69189,34.3920864 C318.310209,34.3920864 325.046724,36.9917336 328.119825,44.674153 C331.192257,36.8738722 338.401892,34.3920864 344.547091,34.3920864 Z M6.57454361,56.3380774 C7.6674401,60.728414 10.2704356,65.3464374 14.1089666,69.5110963 C20.2772691,76.203748 28.5764518,80.7116112 36.8779784,81.878171 C53.5215463,84.2169829 68.5475337,76.5208353 71.3798901,64.5425023 C62.1291107,57.5043024 47.6455535,56.7137606 40.2182772,60.899514 C34.6175175,64.0556544 27.1550837,64.5656058 19.2081458,62.3332709 C14.6262844,61.0465059 10.2701008,58.9608281 6.57454361,56.3380774 Z M115.150194,40.1828306 C103.331576,40.1828306 95.1770415,48.2195039 95.1770415,60.2745138 C95.1770415,72.3291888 103.331576,80.3658621 115.150194,80.3658621 C127.086672,80.3658621 135.241542,72.3291888 135.241542,60.2745138 C135.241542,48.2195039 127.086672,40.1828306 115.150194,40.1828306 Z M242.789755,40.1829645 C231.562454,40.1829645 223.289388,47.2737332 223.289388,60.2746477 C223.289388,73.2748925 231.562454,80.2477998 242.789755,80.2477998 C255.31755,80.2477998 263.47242,71.7383417 263.47242,60.2746477 C263.47242,48.8102841 255.31755,40.1829645 242.789755,40.1829645 Z M125.077872,20.8004922 C127.323266,20.8004922 128.504893,22.4552392 128.504893,23.9914553 C128.504893,25.5280061 127.323266,27.064557 125.077872,27.064557 L125.077872,27.064557 L105.222582,27.064557 C103.09505,27.064557 102.031619,25.5280061 102.031619,23.9914553 C102.031619,22.4552392 103.09505,20.8004922 105.222582,20.8004922 L105.222582,20.8004922 Z M252.36298,20.8004922 C254.608373,20.8004922 255.79,22.4552392 255.79,23.9914553 C255.79,25.5280061 254.608373,27.064557 252.36298,27.064557 L252.36298,27.064557 L232.507689,27.064557 C230.380157,27.064557 229.316726,25.5280061 229.316726,23.9914553 C229.316726,22.4552392 230.380157,20.8004922 232.507689,20.8004922 L232.507689,20.8004922 Z" id="LOGO-&#x2022;-DARK-VERSION-&#x2022;-Primary"></path></g><text id="Soulful-Luxury" font-family="Exo-Medium, Exo" font-size="30" font-weight="400"><tspan x="20.57" y="148">SOULFUL LUXURY</tspan></text></g></g></g></svg>